{
  "asset": {
    "version": "2.0",
    "generator": "THREE.GLTFExporter"
  },
  "scenes": [
    {
      "nodes": [
        4
      ],
      "name": "AuxScene"
    }
  ],
  "scene": 0,
  "nodes": [
    {
      "mesh": 0
    },
    {
      "name": "Object 1",
      "children": [
        0
      ]
    },
    {
      "translation": [
        -22.804412134824282,
        2.162538676048796,
        -2.8630810464886083
      ],
      "scale": [
        0.1140298594902047,
        0.1140298594902047,
        0.1140298594902047
      ],
      "children": [
        1
      ]
    },
    {
      "rotation": [
        -0.023331726947232394,
        -0.2986342846358345,
        -0.007303203878842444,
        0.9540544262021823
      ],
      "translation": [
        -31.322263493892752,
        2.688525875542627,
        45.130825430927295
      ],
      "camera": 0
    },
    {
      "rotation": [
        0,
        0.3090169943749474,
        0,
        0.9510565162951535
      ],
      "children": [
        2,
        3
      ]
    }
  ],
  "bufferViews": [
    {
      "buffer": 0,
      "byteOffset": 0,
      "byteLength": 335664,
      "target": 34962,
      "byteStride": 12
    },
    {
      "buffer": 0,
      "byteOffset": 335664,
      "byteLength": 335664,
      "target": 34962,
      "byteStride": 12
    },
    {
      "buffer": 0,
      "byteOffset": 671328,
      "byteLength": 335664,
      "target": 34962,
      "byteStride": 12
    },
    {
      "buffer": 0,
      "byteOffset": 1006992,
      "byteLength": 223776,
      "target": 34962,
      "byteStride": 8
    },
    {
      "buffer": 0,
      "byteOffset": 1230768,
      "byteLength": 223776,
      "target": 34962,
      "byteStride": 8
    },
    {
      "buffer": 0,
      "byteOffset": 1454544,
      "byteLength": 111888,
      "target": 34963
    }
  ],
  "buffers": [
    {
      "byteLength": 1566432,
      "uri": "data:application/octet-stream;base64,"
    }
  ],
  "accessors": [
    {
      "bufferView": 0,
      "componentType": 5126,
      "count": 27972,
      "max": [
        419.2271423339844,
        45.883663177490234,
        124.92784118652344
      ],
      "min": [
        -19.254499435424804,
        -83.81300354003906,
        -74.71150207519531
      ],
      "type": "VEC3"
    },
    {
      "bufferView": 1,
      "componentType": 5126,
      "count": 27972,
      "max": [
        1,
        1,
        1
      ],
      "min": [
        -1,
        -1,
        -1
      ],
      "type": "VEC3"
    },
    {
      "bufferView": 2,
      "componentType": 5126,
      "count": 27972,
      "max": [
        1,
        1,
        1
      ],
      "min": [
        1,
        1,
        1
      ],
      "type": "VEC3"
    },
    {
      "bufferView": 3,
      "componentType": 5126,
      "count": 27972,
      "max": [
        0.999755859375,
        1
      ],
      "min": [
        0,
        0
      ],
      "type": "VEC2"
    },
    {
      "bufferView": 4,
      "componentType": 5126,
      "count": 27972,
      "max": [
        0.999755859375,
        1
      ],
      "min": [
        0,
        0
      ],
      "type": "VEC2"
    },
    {
      "bufferView": 5,
      "componentType": 5125,
      "count": 27972,
      "max": [
        27971
      ],
      "min": [
        0
      ],
      "type": "SCALAR"
    }
  ],
  "materials": [
    {
      "pbrMetallicRoughness": {
        "metallicFactor": 0.5,
        "roughnessFactor": 0.8,
        "baseColorTexture": {
          "index": 0
        }
      },
      "normalTexture": {
        "index": 1,
        "scale": 1
      },
      "doubleSided": true,
      "name": "Standard_13"
    }
  ],
  "textures": [
    {
      "sampler": 0,
      "source": 0
    },
    {
      "sampler": 1,
      "source": 1
    }
  ],
  "samplers": [
    {
      "magFilter": 9729,
      "minFilter": 9987
    },
    {
      "magFilter": 9729,
      "minFilter": 9987
    }
  ],
  "images": [
    {
      "mimeType": "image/png",
      "uri": "texture_2.png"
    },
    {
      "mimeType": "image/png",
      "uri": "normalmap.png"
    }
  ],
  "meshes": [
    {
      "primitives": [
        {
          "mode": 4,
          "attributes": {
            "POSITION": 0,
            "NORMAL": 1,
            "COLOR_0": 2,
            "TEXCOORD_0": 3,
            "TEXCOORD_1": 4
          },
          "indices": 5,
          "material": 0
        }
      ]
    }
  ],
  "cameras": [
    {
      "type": "perspective",
      "perspective": {
        "aspectRatio": 2.124416796267496,
        "yfov": 0.3697005996080229,
        "zfar": 4000,
        "znear": 0.1
      }
    }
  ]
}